<svg xmlns="http://www.w3.org/2000/svg" viewBox="0 0 1000 250" style="overflow: hidden; background: #05020c;">
  <defs>
    <!-- Background Sky Gradient -->
    <linearGradient id="skyGrad" x1="0%" y1="0%" x2="0%" y2="100%">
      <stop offset="0%" stop-color="#05020c"/>
      <stop offset="60%" stop-color="#0f0724"/>
      <stop offset="100%" stop-color="#1e0c3a"/>
    </linearGradient>

    <!-- Retro Sun Gradient -->
    <linearGradient id="sunGrad" x1="0%" y1="0%" x2="0%" y2="100%">
      <stop offset="0%" stop-color="#ffaa00"/>
      <stop offset="30%" stop-color="#ff007f"/>
      <stop offset="100%" stop-color="#7b00ff"/>
    </linearGradient>

    <!-- Mountain Glow Gradients -->
    <linearGradient id="mountainGradBack" x1="0%" y1="0%" x2="0%" y2="100%">
      <stop offset="0%" stop-color="#2d0b5a" stop-opacity="0.3"/>
      <stop offset="100%" stop-color="#0b0318" stop-opacity="0.9"/>
    </linearGradient>
    <linearGradient id="mountainGradFront" x1="0%" y1="0%" x2="0%" y2="100%">
      <stop offset="0%" stop-color="#460066" stop-opacity="0.5"/>
      <stop offset="100%" stop-color="#050110" stop-opacity="1"/>
    </linearGradient>

    <!-- Perspective Grid Fade Gradient -->
    <linearGradient id="gridFade" x1="0%" y1="135" x2="0%" y2="250" gradientUnits="userSpaceOnUse">
      <stop offset="0%" stop-color="#00f3ff" stop-opacity="0.0"/>
      <stop offset="20%" stop-color="#00f3ff" stop-opacity="0.25"/>
      <stop offset="100%" stop-color="#00f3ff" stop-opacity="0.9"/>
    </linearGradient>

    <!-- Bottom Wave Gradients -->
    <linearGradient id="waveCyan" x1="0%" y1="0%" x2="100%" y2="0%">
      <stop offset="0%" stop-color="#00f3ff" stop-opacity="0.25"/>
      <stop offset="50%" stop-color="#0055ff" stop-opacity="0.05"/>
      <stop offset="100%" stop-color="#00f3ff" stop-opacity="0.35"/>
    </linearGradient>

    <linearGradient id="ufoBeam" x1="0%" y1="0%" x2="0%" y2="100%">
      <stop offset="0%" stop-color="#00ffcc" stop-opacity="0.8"/>
      <stop offset="100%" stop-color="#00ffcc" stop-opacity="0.0"/>
    </linearGradient>

    <linearGradient id="fireGrad" x1="0%" y1="0%" x2="0%" y2="100%">
      <stop offset="0%" stop-color="#ffaa00"/>
      <stop offset="100%" stop-color="#ff0000" stop-opacity="0"/>
    </linearGradient>

    <!-- Filters -->
    <filter id="glow" x="-20%" y="-20%" width="140%" height="140%">
      <feGaussianBlur stdDeviation="5" result="blur" />
      <feMerge>
        <feMergeNode in="blur" />
        <feMergeNode in="SourceGraphic" />
      </feMerge>
    </filter>

    <filter id="discoHue">
      <feColorMatrix type="hueRotate" values="0">
        <animate attributeName="values" from="0" to="360" dur="2s" repeatCount="indefinite" />
      </feColorMatrix>
    </filter>

    <!-- Horizon Mask to prevent grid from bleeding upward -->
    <clipPath id="gridClip">
      <rect x="0" y="135" width="1000" height="115" />
    </clipPath>

    <!-- Retro Sun Mask -->
    <mask id="sunMask">
      <circle cx="500" cy="105" r="60" fill="#ffffff" />
      <rect x="430" y="108" width="140" height="2" fill="#000000" />
      <rect x="430" y="115" width="140" height="3" fill="#000000" />
      <rect x="430" y="123" width="140" height="4" fill="#000000" />
      <rect x="430" y="133" width="140" height="6" fill="#000000" />
      <rect x="430" y="145" width="140" height="9" fill="#000000" />
      <rect x="430" y="159" width="140" height="13" fill="#000000" />
    </mask>

    <mask id="ufoMask">
      <ellipse cx="0" cy="-20" rx="40" ry="15" fill="#fff" />
    </mask>
  </defs>

  <style>
    /* Sky and Environment */
    .star { animation: twinkle 3s ease-in-out infinite; }
    .star-fast { animation: twinkle 1.5s ease-in-out infinite; }
    .star-slow { animation: twinkle 4.5s ease-in-out infinite; }
    @keyframes twinkle {
      0%, 100% { opacity: 0.15; }
      50% { opacity: 0.95; }
    }
    .sun-pulse { animation: pulseSun 4s ease-in-out infinite alternate; }
    @keyframes pulseSun {
      from { transform: scale(1); transform-origin: 500px 105px; }
      to { transform: scale(1.05); transform-origin: 500px 105px; }
    }

    /* Parallax Animations */
    .parallax-back { animation: panLeft 40s linear infinite; }
    .parallax-front { animation: panLeft 20s linear infinite; }
    @keyframes panLeft {
      from { transform: translateX(0); }
      to { transform: translateX(-1000px); }
    }

    /* Grid Easing */
    @keyframes gridScroll {
      0% { transform: translateY(0); opacity: 0; stroke-width: 0.5px; }
      10% { transform: translateY(2.3px); opacity: 0.25; stroke-width: 0.6px; }
      30% { transform: translateY(11.5px); opacity: 0.55; stroke-width: 1px; }
      60% { transform: translateY(34.5px); opacity: 0.85; stroke-width: 1.5px; }
      85% { transform: translateY(66.7px); opacity: 0.95; stroke-width: 2px; }
      100% { transform: translateY(115px); opacity: 0; stroke-width: 2.5px; }
    }

    /* Portal Ring Rotations */
    .rotate-cw { animation: rotateCW 20s linear infinite; transform-origin: 500px 105px; }
    .rotate-ccw { animation: rotateCCW 12s linear infinite; transform-origin: 500px 105px; }
    @keyframes rotateCW { from { transform: rotate(0deg); } to { transform: rotate(360deg); } }
    @keyframes rotateCCW { from { transform: rotate(360deg); } to { transform: rotate(0deg); } }

    /* ======================================================== */
    /* CHARACTER ANIMATIONS                                     */
    /* ======================================================== */

    /* Generic Movers */
    @keyframes moveLeft { from { transform: translateX(1100px); } to { transform: translateX(-150px); } }
    @keyframes moveLeftSlow { from { transform: translateX(1150px); } to { transform: translateX(-200px); } }
    @keyframes moveRight { from { transform: translateX(-150px); } to { transform: translateX(1100px); } }
    @keyframes moveRightSlow { from { transform: translateX(-250px); } to { transform: translateX(1150px); } }

    /* T-Rex */
    .trex-bobber { animation: trexBob 0.3s ease-in-out infinite alternate; }
    .trex-arm { animation: flailArm 0.12s ease-in-out infinite alternate; transform-origin: -5px 140px; }
    .trex-leg-front { animation: legWalkFront 0.3s ease-in-out infinite alternate; transform-origin: 46px 180px; }
    .trex-leg-back { animation: legWalkBack 0.3s ease-in-out infinite alternate; transform-origin: 31px 180px; }
    @keyframes trexBob { 0%, 100% { transform: translateY(0); } 50% { transform: translateY(-6px); } }
    @keyframes flailArm { 0%, 100% { transform: rotate(0deg); } 50% { transform: rotate(-55deg); } }
    @keyframes legWalkFront { 0%, 100% { transform: rotate(-25deg); } 50% { transform: rotate(25deg); } }
    @keyframes legWalkBack { 0%, 100% { transform: rotate(25deg); } 50% { transform: rotate(-25deg); } }

    /* Capy and Croc */
    .capy-rider { animation: capyBob 0.6s ease-in-out infinite alternate; transform-origin: center; }
    .croc-tail { animation: tailWag 0.5s ease-in-out infinite alternate; transform-origin: 0px 195px; }
    @keyframes capyBob { 0%, 100% { transform: translateY(0); } 50% { transform: translateY(-3px); } }
    @keyframes tailWag { 0%, 100% { transform: rotate(0deg); } 50% { transform: rotate(-6deg); } }

    /* Giraffe */
    .giraffe-stretcher { animation: giraffeStretch 5s ease-in-out infinite; }
    @keyframes giraffeStretch { 0%, 100% { transform: translateY(65px); } 50% { transform: translateY(-45px); } }

    /* Seagull */
    .bird-wings { animation: flapWings 0.12s linear infinite; transform-origin: 15px -3px; }
    .bird-bobber { animation: birdBob 0.5s ease-in-out infinite alternate; }
    @keyframes flapWings { 0%, 100% { transform: scaleY(1); } 50% { transform: scaleY(-0.9); } }
    @keyframes birdBob { from { transform: translateY(0); } to { transform: translateY(-7px); } }

    /* Monkey */
    .monkey-swing-group { animation: monkeySwing 2.0s ease-in-out infinite alternate; }
    .monkey-arm-left { animation: flailArmLeft 0.15s ease-in-out infinite alternate; transform-origin: -10px -5px; }
    .monkey-arm-right { animation: flailArmRight 0.15s ease-in-out infinite alternate; transform-origin: 10px -5px; }
    @keyframes monkeySwing { 0% { transform: rotate(-38deg); } 100% { transform: rotate(38deg); } }
    @keyframes flailArmLeft { 0%, 100% { transform: rotate(0deg); } 50% { transform: rotate(-25deg); } }
    @keyframes flailArmRight { 0%, 100% { transform: rotate(0deg); } 50% { transform: rotate(25deg); } }

    /* Jetpack Penguin */
    .penguin-fly { animation: flyPenguin 8s cubic-bezier(0.42, 0, 0.58, 1) infinite; }
    .jetpack-fire { animation: fireFlicker 0.1s infinite alternate; transform-origin: top; }
    @keyframes flyPenguin {
      0% { transform: translate(-100px, 150px) rotate(45deg); }
      25% { transform: translate(300px, 40px) rotate(20deg); }
      50% { transform: translate(600px, 180px) rotate(60deg); }
      75% { transform: translate(900px, 60px) rotate(15deg); }
      100% { transform: translate(1200px, -50px) rotate(45deg); }
    }
    @keyframes fireFlicker { from { transform: scaleY(1); opacity: 0.8; } to { transform: scaleY(1.5); opacity: 1; } }

    /* Disco Frog */
    .disco-frog { animation: discoJump 1.2s cubic-bezier(0.28, 0.84, 0.42, 1) infinite alternate; filter: url(#discoHue); }
    @keyframes discoJump {
      0% { transform: translateY(220px) scale(1.1, 0.9); }
      100% { transform: translateY(160px) scale(0.9, 1.1) rotate(10deg); }
    }

    /* UFO Abduction */
    .ufo-hover { animation: ufoFloat 6s ease-in-out infinite; }
    .cow-spin { animation: cowAbduct 6s ease-in-out infinite; transform-origin: center; }
    .ufo-beam { animation: beamPulse 6s ease-in-out infinite; transform-origin: top; }
    @keyframes ufoFloat {
      0%, 100% { transform: translate(750px, 40px) rotate(-2deg); }
      20% { transform: translate(700px, 60px) rotate(2deg); }
      50% { transform: translate(750px, 50px) rotate(-1deg); }
      80% { transform: translate(780px, 30px) rotate(3deg); }
    }
    @keyframes cowAbduct {
      0%, 100% { transform: translateY(220px) rotate(0deg) scale(1); opacity: 1; }
      40% { transform: translateY(220px) rotate(0deg) scale(1); opacity: 1; }
      80% { transform: translateY(50px) rotate(1080deg) scale(0.2); opacity: 0; }
      90% { transform: translateY(50px) rotate(1080deg) scale(0.2); opacity: 0; }
    }
    @keyframes beamPulse {
      0%, 100% { transform: scaleX(0); opacity: 0; }
      30% { transform: scaleX(0); opacity: 0; }
      40% { transform: scaleX(1); opacity: 1; }
      75% { transform: scaleX(1); opacity: 1; }
      85% { transform: scaleX(0); opacity: 0; }
    }
  </style>

  <!-- Sky Background -->
  <rect width="100%" height="100%" fill="url(#skyGrad)" rx="12" />

  <!-- Stars Background -->
  <g opacity="0.6">
    <circle cx="80" cy="50" r="1" fill="#fff" class="star" />
    <circle cx="160" cy="35" r="1.5" fill="#fff" class="star-slow" />
    <circle cx="230" cy="85" r="1" fill="#fff" class="star-fast" />
    <circle cx="340" cy="45" r="1" fill="#fff" class="star" />
    <circle cx="420" cy="90" r="1.5" fill="#fff" class="star-slow" />
    <circle cx="580" cy="30" r="1" fill="#fff" class="star-fast" />
    <circle cx="660" cy="75" r="1.5" fill="#fff" class="star" />
    <circle cx="780" cy="40" r="1" fill="#fff" class="star-slow" />
    <circle cx="850" cy="95" r="1" fill="#fff" class="star-fast" />
    <circle cx="920" cy="60" r="1.5" fill="#fff" class="star" />
  </g>

  <!-- Outrun Retro Segmented Sun -->
  <g class="sun-pulse">
    <circle cx="500" cy="105" r="65" fill="#ff007f" opacity="0.25" filter="url(#glow)" />
    <circle cx="500" cy="105" r="60" fill="url(#sunGrad)" filter="url(#glow)" mask="url(#sunMask)" />
  </g>

  <!-- Core Portal Tech Ring -->
  <g>
    <circle cx="500" cy="105" r="75" fill="none" stroke="#00f3ff" stroke-width="1.5" stroke-dasharray="100 20 10 20" class="rotate-cw" opacity="0.4" filter="url(#glow)" />
    <circle cx="500" cy="105" r="68" fill="none" stroke="#ff007f" stroke-width="1" stroke-dasharray="40 40" class="rotate-ccw" opacity="0.5" filter="url(#glow)" />
  </g>

  <!-- Parallax Vector Mountain Range (Back) -->
  <g class="parallax-back">
    <g>
      <path d="M -50 140 L 100 80 L 250 120 L 400 70 L 550 110 L 700 60 L 850 100 L 1050 140 Z" fill="url(#mountainGradBack)" />
      <path d="M -50 140 L 100 80 L 250 120 L 400 70 L 550 110 L 700 60 L 850 100 L 1050 140" fill="none" stroke="#00f3ff" stroke-width="1.2" filter="url(#glow)" opacity="0.4" />
    </g>
    <g transform="translate(1000, 0)">
      <path d="M -50 140 L 100 80 L 250 120 L 400 70 L 550 110 L 700 60 L 850 100 L 1050 140 Z" fill="url(#mountainGradBack)" />
      <path d="M -50 140 L 100 80 L 250 120 L 400 70 L 550 110 L 700 60 L 850 100 L 1050 140" fill="none" stroke="#00f3ff" stroke-width="1.2" filter="url(#glow)" opacity="0.4" />
    </g>
  </g>

  <!-- Parallax Vector Mountain Range (Front) -->
  <g class="parallax-front">
    <g>
      <path d="M -50 140 L 150 95 L 300 135 L 500 75 L 680 125 L 800 85 L 1050 140 Z" fill="url(#mountainGradFront)" />
      <path d="M -50 140 L 150 95 L 300 135 L 500 75 L 680 125 L 800 85 L 1050 140" fill="none" stroke="#ff007f" stroke-width="1.8" filter="url(#glow)" opacity="0.7" />
    </g>
    <g transform="translate(1000, 0)">
      <path d="M -50 140 L 150 95 L 300 135 L 500 75 L 680 125 L 800 85 L 1050 140 Z" fill="url(#mountainGradFront)" />
      <path d="M -50 140 L 150 95 L 300 135 L 500 75 L 680 125 L 800 85 L 1050 140" fill="none" stroke="#ff007f" stroke-width="1.8" filter="url(#glow)" opacity="0.7" />
    </g>
  </g>

  <!-- Cyber Perspective Grid -->
  <g clip-path="url(#gridClip)">
    <line x1="0" y1="135" x2="1000" y2="135" stroke="#00f3ff" stroke-width="1" opacity="0.5" filter="url(#glow)" />

    <!-- Converging lines -->
    <line x1="500" y1="135" x2="-200" y2="250" stroke="url(#gridFade)" stroke-width="1" opacity="0.6" />
    <line x1="500" y1="135" x2="-30" y2="250" stroke="url(#gridFade)" stroke-width="1" opacity="0.6" />
    <line x1="500" y1="135" x2="120" y2="250" stroke="url(#gridFade)" stroke-width="1" opacity="0.6" />
    <line x1="500" y1="135" x2="240" y2="250" stroke="url(#gridFade)" stroke-width="1" opacity="0.6" />
    <line x1="500" y1="135" x2="330" y2="250" stroke="url(#gridFade)" stroke-width="1" opacity="0.6" />
    <line x1="500" y1="135" x2="400" y2="250" stroke="url(#gridFade)" stroke-width="1" opacity="0.6" />
    <line x1="500" y1="135" x2="450" y2="250" stroke="url(#gridFade)" stroke-width="1" opacity="0.6" />
    <line x1="500" y1="135" x2="480" y2="250" stroke="url(#gridFade)" stroke-width="1" opacity="0.6" />
    <line x1="500" y1="135" x2="500" y2="250" stroke="url(#gridFade)" stroke-width="1" opacity="0.6" />
    <line x1="500" y1="135" x2="520" y2="250" stroke="url(#gridFade)" stroke-width="1" opacity="0.6" />
    <line x1="500" y1="135" x2="550" y2="250" stroke="url(#gridFade)" stroke-width="1" opacity="0.6" />
    <line x1="500" y1="135" x2="600" y2="250" stroke="url(#gridFade)" stroke-width="1" opacity="0.6" />
    <line x1="500" y1="135" x2="670" y2="250" stroke="url(#gridFade)" stroke-width="1" opacity="0.6" />
    <line x1="500" y1="135" x2="760" y2="250" stroke="url(#gridFade)" stroke-width="1" opacity="0.6" />
    <line x1="500" y1="135" x2="880" y2="250" stroke="url(#gridFade)" stroke-width="1" opacity="0.6" />
    <line x1="500" y1="135" x2="1030" y2="250" stroke="url(#gridFade)" stroke-width="1" opacity="0.6" />
    <line x1="500" y1="135" x2="1200" y2="250" stroke="url(#gridFade)" stroke-width="1" opacity="0.6" />

    <!-- Animated Horizontal Lines -->
    <line x1="0" y1="135" x2="1000" y2="135" stroke="url(#gridFade)" style="animation: gridScroll 3s linear infinite; animation-delay: 0s;" />
    <line x1="0" y1="135" x2="1000" y2="135" stroke="url(#gridFade)" style="animation: gridScroll 3s linear infinite; animation-delay: 0.6s;" />
    <line x1="0" y1="135" x2="1000" y2="135" stroke="url(#gridFade)" style="animation: gridScroll 3s linear infinite; animation-delay: 1.2s;" />
    <line x1="0" y1="135" x2="1000" y2="135" stroke="url(#gridFade)" style="animation: gridScroll 3s linear infinite; animation-delay: 1.8s;" />
    <line x1="0" y1="135" x2="1000" y2="135" stroke="url(#gridFade)" style="animation: gridScroll 3s linear infinite; animation-delay: 2.4s;" />
  </g>

  <!-- HUD Cockpit Indicators -->
  <g>
    <path d="M 25 10 H 155 V 30" fill="none" stroke="#00f3ff" stroke-width="0.75" opacity="0.4" />
    <path d="M 25 18 V 10" fill="none" stroke="#00f3ff" stroke-width="1.5" />
    <circle cx="35" cy="20" r="3.5" fill="#00f3ff">
      <animate attributeName="opacity" values="0.35;1;0.35" dur="1.5s" repeatCount="indefinite"/>
    </circle>
    <text x="47" y="23" font-family="'Consolas', 'Courier New', monospace" font-size="10" fill="#00f3ff" letter-spacing="1.5" font-weight="bold">ZOO_MODE: EXTREME</text>
  </g>

  <g>
    <path d="M 975 10 H 750 V 30" fill="none" stroke="#ff007f" stroke-width="0.75" opacity="0.4" />
    <path d="M 975 18 V 10" fill="none" stroke="#ff007f" stroke-width="1.5" />
    <text x="765" y="23" font-family="'Consolas', 'Courier New', monospace" font-size="10" fill="#ff007f" letter-spacing="1.5" font-weight="bold">ABDUCTION_TARGET: LOCKED</text>
    <rect x="945" y="16" width="2" height="8" fill="#ff007f" opacity="0.8">
      <animate attributeName="height" values="4;10;6;4" dur="1.2s" repeatCount="indefinite"/>
      <animate attributeName="y" values="20;14;18;20" dur="1.2s" repeatCount="indefinite"/>
    </rect>
    <rect x="950" y="14" width="2" height="10" fill="#ff007f" opacity="0.8">
      <animate attributeName="height" values="8;3;9;8" dur="1.5s" repeatCount="indefinite"/>
      <animate attributeName="y" values="16;21;15;16" dur="1.5s" repeatCount="indefinite"/>
    </rect>
  </g>

  <!-- ======================================================== -->
  <!-- EXTREME KOCAK ZOO CHARACTERS                             -->
  <!-- ======================================================== -->

  <!-- 1. Pendulum-Swinging Monkey -->
  <g class="monkey-swing-group" style="transform-origin: 320px -30px; filter: drop-shadow(2px 5px 4px rgba(0,0,0,0.5));">
    <path d="M 320 -30 Q 310 20 320 80" fill="none" stroke="#8B4513" stroke-width="2.5" />
    <g transform="translate(320, 85) rotate(180)">
      <circle cx="0" cy="20" r="14" fill="#8B4513" />
      <path d="M -10 15 Q -12 28 0 30 Q 12 28 10 15 Z" fill="#eed9c4" />
      <circle cx="-5" cy="18" r="4.5" fill="#fff" />
      <circle cx="-4" cy="18" r="1.5" fill="#000" />
      <circle cx="5" cy="18" r="4.5" fill="#fff" />
      <circle cx="4" cy="19" r="1.5" fill="#000" />
      <path d="M -4 24 Q 0 28 4 24" fill="none" stroke="#000" stroke-width="1" />
      <ellipse cx="0" cy="-5" rx="12" ry="16" fill="#8B4513" />
      <ellipse cx="0" cy="-5" rx="8" ry="10" fill="#eed9c4" />
      <path d="M -10 -5 Q -25 -25 -20 -30" fill="none" stroke="#8B4513" stroke-width="3" stroke-linecap="round" class="monkey-arm-left" />
      <path d="M 10 -5 Q 25 -25 20 -30" fill="none" stroke="#8B4513" stroke-width="3" stroke-linecap="round" class="monkey-arm-right" />
      <path d="M -8 10 Q -18 5 -20 -5" fill="none" stroke="#8B4513" stroke-width="3" stroke-linecap="round" />
      <path d="M 8 10 Q 18 5 20 -5" fill="none" stroke="#8B4513" stroke-width="3" stroke-linecap="round" />
    </g>
  </g>

  <!-- 2. Jetpack Penguin -->
  <g class="penguin-fly">
    <g style="filter: drop-shadow(3px 8px 5px rgba(0,0,0,0.6));">
      <!-- Jetpack Flames -->
      <path d="M -8 20 L -3 45 L 2 20 Z" fill="url(#fireGrad)" class="jetpack-fire" />
      <!-- Jetpack -->
      <rect x="-12" y="-5" width="18" height="25" rx="4" fill="#666" />
      <!-- Penguin Body -->
      <ellipse cx="10" cy="5" rx="12" ry="18" fill="#111" />
      <ellipse cx="12" cy="7" rx="8" ry="14" fill="#fff" />
      <!-- Flippers -->
      <path d="M 0 5 Q -10 15 -15 10" fill="none" stroke="#111" stroke-width="6" stroke-linecap="round" />
      <path d="M 20 5 Q 30 15 35 10" fill="none" stroke="#111" stroke-width="6" stroke-linecap="round" />
      <!-- Eyes and Beak -->
      <circle cx="16" cy="-2" r="3" fill="#fff" />
      <circle cx="17" cy="-2" r="1" fill="#000" />
      <polygon points="18,2 26,4 18,6" fill="#FFA500" />
      <!-- Aviator Goggles -->
      <rect x="5" y="-6" width="16" height="5" fill="#ff007f" rx="2" />
    </g>
  </g>

  <!-- 3. UFO Abducting a Cow -->
  <g class="ufo-hover">
    <!-- Abduction Beam -->
    <rect x="-35" y="0" width="70" height="250" fill="url(#ufoBeam)" class="ufo-beam" />
    
    <!-- Spinning Derpy Cow -->
    <g class="cow-spin">
      <!-- Body -->
      <rect x="-15" y="-10" width="30" height="20" rx="6" fill="#fff" />
      <!-- Spots -->
      <circle cx="-5" cy="-2" r="4" fill="#000" />
      <circle cx="8" cy="4" r="5" fill="#000" />
      <ellipse cx="-10" cy="5" rx="3" ry="2" fill="#000" />
      <!-- Head -->
      <ellipse cx="18" cy="-8" rx="8" ry="10" fill="#fff" />
      <!-- Snout -->
      <ellipse cx="22" cy="-4" rx="5" ry="6" fill="#ffb6c1" />
      <circle cx="20" cy="-6" r="1" fill="#000" />
      <circle cx="24" cy="-6" r="1" fill="#000" />
      <!-- Eyes -->
      <circle cx="15" cy="-12" r="2.5" fill="#fff" />
      <circle cx="15" cy="-12" r="1" fill="#000" />
      <circle cx="21" cy="-12" r="2.5" fill="#fff" />
      <circle cx="21" cy="-12" r="1" fill="#000" />
      <!-- Legs flailing -->
      <line x1="-10" y1="10" x2="-15" y2="20" stroke="#000" stroke-width="3" stroke-linecap="round" />
      <line x1="-5" y1="10" x2="0" y2="18" stroke="#000" stroke-width="3" stroke-linecap="round" />
      <line x1="5" y1="10" x2="10" y2="18" stroke="#000" stroke-width="3" stroke-linecap="round" />
      <line x1="10" y1="10" x2="15" y2="20" stroke="#000" stroke-width="3" stroke-linecap="round" />
      <!-- Udder -->
      <path d="M -2 10 Q 2 15 6 10" fill="#ffb6c1" />
      <line x1="0" y1="10" x2="0" y2="14" stroke="#ffb6c1" stroke-width="2" />
      <line x1="4" y1="10" x2="4" y2="14" stroke="#ffb6c1" stroke-width="2" />
    </g>

    <!-- UFO Ship -->
    <ellipse cx="0" cy="-20" rx="40" ry="15" fill="#555" stroke="#00f3ff" stroke-width="2" style="filter: drop-shadow(0 0 10px #00f3ff);" />
    <path d="M -25 -25 Q 0 -50 25 -25 Z" fill="#b3ffff" opacity="0.6" />
    <ellipse cx="0" cy="-15" rx="30" ry="10" fill="none" stroke="#333" stroke-width="1" />
    <!-- Lights -->
    <circle cx="-25" cy="-18" r="2" fill="#ff007f">
      <animate attributeName="fill" values="#ff007f;#fff;#ff007f" dur="0.5s" repeatCount="indefinite" />
    </circle>
    <circle cx="0" cy="-15" r="2" fill="#00f3ff">
      <animate attributeName="fill" values="#00f3ff;#fff;#00f3ff" dur="0.5s" repeatCount="indefinite" begin="0.2s" />
    </circle>
    <circle cx="25" cy="-18" r="2" fill="#ffaa00">
      <animate attributeName="fill" values="#ffaa00;#fff;#ffaa00" dur="0.5s" repeatCount="indefinite" begin="0.4s" />
    </circle>
  </g>

  <!-- 4. Disco Frog -->
  <g class="disco-frog" transform="translate(100, 220)">
    <g style="filter: drop-shadow(0px 8px 4px rgba(0,0,0,0.6));">
      <!-- Frog Body -->
      <ellipse cx="0" cy="0" rx="20" ry="14" fill="#32CD32" />
      <ellipse cx="0" cy="4" rx="14" ry="8" fill="#90EE90" />
      <!-- Eyes -->
      <circle cx="-12" cy="-12" r="8" fill="#32CD32" />
      <circle cx="-12" cy="-12" r="5" fill="#fff" />
      <circle cx="-12" cy="-12" r="2" fill="#000" />
      <circle cx="12" cy="-12" r="8" fill="#32CD32" />
      <circle cx="12" cy="-12" r="5" fill="#fff" />
      <circle cx="12" cy="-12" r="2" fill="#000" />
      <!-- Top Hat -->
      <rect x="-10" y="-30" width="20" height="15" fill="#000" />
      <rect x="-15" y="-15" width="30" height="4" fill="#000" rx="2" />
      <rect x="-10" y="-20" width="20" height="3" fill="#ff007f" />
      <!-- Legs -->
      <path d="M -15 5 Q -25 0 -22 15" fill="none" stroke="#32CD32" stroke-width="4" stroke-linecap="round" />
      <path d="M 15 5 Q 25 0 22 15" fill="none" stroke="#32CD32" stroke-width="4" stroke-linecap="round" />
    </g>
  </g>

  <!-- 5. Screaming Seagull -->
  <g style="animation: moveLeft 9s linear infinite; animation-delay: 1.5s; filter: drop-shadow(2px 5px 3px rgba(0,0,0,0.5));">
    <g class="bird-bobber" style="transform-origin: center;">
      <polygon points="40,-3 45,-10 38,-5" fill="#fff" />
      <ellipse cx="20" cy="0" rx="18" ry="10" fill="#fff" stroke="#ccc" stroke-width="0.5" />
      <circle cx="2" cy="-5" r="9" fill="#fff" stroke="#ccc" stroke-width="0.5" />
      <polygon points="-5,-8 -18,-15 -6,-4" fill="#FFA500" />
      <polygon points="-5,-4 -18,3 -6,0" fill="#FFA500" />
      <polygon points="-6,-6 -14,-6 -6,-1" fill="#FF0000" />
      <circle cx="0" cy="-8" r="3.5" fill="#fff" />
      <circle cx="-1" cy="-8" r="1.5" fill="#000" />
      <g class="bird-wings">
        <path d="M 15 -3 Q 25 -30 20 -35 Q 10 -15 15 -3" fill="#e0e0e0" />
        <path d="M 15 -3 Q 30 -40 22 -45 Q 8 -15 15 -3" fill="#ffffff" stroke="#ccc" stroke-width="0.5" />
      </g>
    </g>
  </g>

  <!-- 6. Noodle-Neck Giraffe -->
  <g transform="translate(840, 130)" style="filter: drop-shadow(2px 5px 4px rgba(0,0,0,0.5));">
    <g class="giraffe-stretcher">
      <line x1="0" y1="-45" x2="0" y2="200" stroke="#FFD700" stroke-width="12" stroke-linecap="round" />
      <circle cx="-3" cy="10" r="3" fill="#8B4513" />
      <circle cx="3" cy="40" r="2.5" fill="#8B4513" />
      <circle cx="-2" cy="70" r="3" fill="#8B4513" />
      <circle cx="2" cy="100" r="2" fill="#8B4513" />
      <circle cx="-3" cy="130" r="3.5" fill="#8B4513" />
      <circle cx="3" cy="160" r="3" fill="#8B4513" />
      <g transform="translate(0, -45)">
        <path d="M -8 -15 Q 0 -30 8 -15 Q 12 -5 0 0 Q -12 -5 -8 -15 Z" fill="#FFD700" />
        <ellipse cx="0" cy="-3" rx="6" ry="4" fill="#FFA07A" />
        <circle cx="-2" cy="-4" r="0.75" fill="#000" />
        <circle cx="2" cy="-4" r="0.75" fill="#000" />
        <circle cx="-7" cy="-18" r="6" fill="#fff" />
        <circle cx="-8" cy="-18" r="2.5" fill="#000" />
        <circle cx="7" cy="-18" r="6" fill="#fff" />
        <circle cx="5" cy="-19" r="2.5" fill="#000" />
        <path d="M -8 -18 Q -20 -22 -12 -14 Z" fill="#FFD700" />
        <path d="M 8 -18 Q 20 -22 12 -14 Z" fill="#FFD700" />
        <line x1="-3" y1="-23" x2="-5" y2="-30" stroke="#FFD700" stroke-width="2.5" stroke-linecap="round" />
        <circle cx="-5" cy="-31" r="2" fill="#8B4513" />
        <line x1="3" y1="-23" x2="5" y2="-30" stroke="#FFD700" stroke-width="2.5" stroke-linecap="round" />
        <circle cx="5" cy="-31" r="2" fill="#8B4513" />
      </g>
    </g>
  </g>

  <!-- 7. Derpy T-Rex -->
  <g style="animation: moveLeftSlow 14s linear infinite; animation-delay: 5s; filter: drop-shadow(3px 8px 5px rgba(0,0,0,0.6));">
    <g class="trex-bobber" style="transform-origin: center;">
      <path d="M 60 160 Q 90 150 120 180 Q 90 190 60 180 Z" fill="#2d7e75" />
      <rect x="25" y="180" width="12" height="22" rx="4" fill="#1c554e" class="trex-leg-back" />
      <path d="M 20 120 C 50 120 70 140 70 180 C 70 200 40 210 20 200 C 5 190 0 170 5 150 C 5 130 10 120 20 120 Z" fill="#2d7e75" />
      <rect x="40" y="180" width="12" height="22" rx="4" fill="#2d7e75" class="trex-leg-front" />
      <path d="M -15 80 C 15 80 40 90 40 120 C 40 140 15 150 -15 145 C -25 140 -30 120 -30 100 C -30 85 -25 80 -15 80 Z" fill="#2d7e75" />
      <path d="M -20 130 Q 10 135 25 130 Q 10 150 -15 145 Z" fill="#582a3a" />
      <path d="M -10 132 L -5 136 L 0 132 L 5 136 L 10 132" stroke="#fff" stroke-width="1.5" fill="none" />
      <circle cx="15" cy="100" r="10" fill="#fff" />
      <circle cx="12" cy="102" r="4.5" fill="#000" />
      <path d="M -5 140 Q -15 145 -18 138" fill="none" stroke="#2d7e75" stroke-width="3" stroke-linecap="round" class="trex-arm" />
    </g>
  </g>

  <!-- 8. Chonky Capybara Riding Crocodile -->
  <g style="animation: moveRightSlow 22s linear infinite; filter: drop-shadow(3px 8px 5px rgba(0,0,0,0.5));">
    <path d="M 0 195 Q -40 185 -60 205 Q -30 215 0 200 Z" fill="#3a5f25" class="croc-tail" />
    <ellipse cx="20" cy="204" rx="8" ry="4" fill="#284419" />
    <path d="M 0 190 Q 40 172 80 195 L 90 190 L 105 198 L 70 208 Q 35 208 0 190 Z" fill="#3a5f25" />
    <ellipse cx="70" cy="204" rx="8" ry="4" fill="#3a5f25" />
    <path d="M 80 195 L 120 190 L 120 200 L 90 203 Z" fill="#3a5f25" />
    <circle cx="85" cy="188" r="4.5" fill="#fff" />
    <circle cx="86" cy="188" r="1.5" fill="#000" />
    <polygon points="100,200 103,197 106,200" fill="#fff" />
    <polygon points="110,200 113,197 116,200" fill="#fff" />
    <g class="capy-rider">
      <ellipse cx="40" cy="165" rx="22" ry="17" fill="#8B5A2B" />
      <path d="M 55 152 C 65 152 70 158 68 168 C 65 172 55 174 50 174 Z" fill="#8B5A2B" />
      <ellipse cx="66" cy="165" rx="4" ry="5" fill="#5c3a1a" />
      <line x1="57" y1="160" x2="61" y2="160" stroke="#000" stroke-width="1.5" stroke-linecap="round" />
      <ellipse cx="48" cy="150" rx="3" ry="4" fill="#5c3a1a" />
      <rect x="25" y="178" width="5" height="6" fill="#5c3a1a" rx="1.5" />
      <rect x="50" y="178" width="5" height="6" fill="#5c3a1a" rx="1.5" />
      <circle cx="58" cy="143" r="5" fill="#FFA500" />
      <path d="M 58 138 Q 61 136 60 139" fill="none" stroke="#228B22" stroke-width="1" />
    </g>
  </g>

  <!-- Triple Bottom Wave (Fluid neon data overlay) -->
  <g>
    <path d="M 0 230 Q 250 210 500 230 T 1000 230 L 1000 250 L 0 250 Z" fill="url(#waveCyan)" />
    <path d="M 0 235 Q 250 240 500 225 T 1000 235 L 1000 250 L 0 250 Z" fill="url(#waveMagenta)" />
    <path d="M 0 225 Q 250 200 500 235 T 1000 225 L 1000 250 L 0 250 Z" fill="url(#wavePurple)" />
  </g>
</svg>
